<svg width="223" height="193" viewBox="0 0 223 193" fill="none" xmlns="http://www.w3.org/2000/svg">
<g clip-path="url(#clip0_1_16)">
<path d="M42.3529 147.955C42.1483 147.955 41.9819 148.12 41.9819 148.322C41.9819 148.526 42.1483 148.691 42.3529 148.691C42.5575 148.691 42.7232 148.526 42.7232 148.322C42.7232 148.12 42.5575 147.955 42.3529 147.955Z" fill="black"/>
<path d="M53.495 147.588C53.0852 147.588 52.7537 147.917 52.7537 148.322C52.7537 148.729 53.0852 149.058 53.495 149.058C53.9042 149.058 54.2364 148.729 54.2364 148.322C54.2364 147.917 53.9042 147.588 53.495 147.588Z" fill="black"/>
<path d="M64.6371 147.159C63.9892 147.159 63.4629 147.68 63.4629 148.322C63.4629 148.966 63.9892 149.486 64.6371 149.486C65.2857 149.486 65.8113 148.966 65.8113 148.322C65.8113 147.68 65.2857 147.159 64.6371 147.159Z" fill="black"/>
<path d="M75.7799 146.7C74.8754 146.7 74.1426 147.427 74.1426 148.322C74.1426 149.219 74.8754 149.947 75.7799 149.947C76.6844 149.947 77.4172 149.219 77.4172 148.322C77.4172 147.427 76.6844 146.7 75.7799 146.7Z" fill="black"/>
<path d="M86.922 146.271C85.7787 146.271 84.8518 147.19 84.8518 148.322C84.8518 149.456 85.7787 150.375 86.922 150.375C88.0653 150.375 88.9921 149.456 88.9921 148.322C88.9921 147.19 88.0653 146.271 86.922 146.271Z" fill="black"/>
<path d="M98.0648 145.965C96.7504 145.965 95.6854 147.02 95.6854 148.322C95.6854 149.625 96.7504 150.681 98.0648 150.681C99.3784 150.681 100.444 149.625 100.444 148.322C100.444 147.02 99.3784 145.965 98.0648 145.965Z" fill="black"/>
<path d="M109.207 145.75C107.773 145.75 106.612 146.902 106.612 148.322C106.612 149.744 107.773 150.896 109.207 150.896C110.64 150.896 111.802 149.744 111.802 148.322C111.802 146.902 110.64 145.75 109.207 145.75Z" fill="black"/>
<path d="M120.349 145.75C118.916 145.75 117.754 146.902 117.754 148.322C117.754 149.744 118.916 150.896 120.349 150.896C121.782 150.896 122.944 149.744 122.944 148.322C122.944 146.902 121.782 145.75 120.349 145.75Z" fill="black"/>
<path d="M131.492 145.965C130.177 145.965 129.112 147.02 129.112 148.322C129.112 149.625 130.177 150.681 131.492 150.681C132.806 150.681 133.871 149.625 133.871 148.322C133.871 147.02 132.806 145.965 131.492 145.965Z" fill="black"/>
<path d="M142.634 146.301C141.508 146.301 140.595 147.207 140.595 148.322C140.595 149.439 141.508 150.344 142.634 150.344C143.76 150.344 144.673 149.439 144.673 148.322C144.673 147.207 143.76 146.301 142.634 146.301Z" fill="black"/>
<path d="M153.776 146.731C152.889 146.731 152.17 147.444 152.17 148.322C152.17 149.203 152.889 149.916 153.776 149.916C154.663 149.916 155.383 149.203 155.383 148.322C155.383 147.444 154.663 146.731 153.776 146.731Z" fill="black"/>
<path d="M164.919 147.159C164.27 147.159 163.744 147.68 163.744 148.322C163.744 148.966 164.27 149.486 164.919 149.486C165.567 149.486 166.093 148.966 166.093 148.322C166.093 147.68 165.567 147.159 164.919 147.159Z" fill="black"/>
<path d="M176.061 147.588C175.651 147.588 175.319 147.917 175.319 148.322C175.319 148.729 175.651 149.058 176.061 149.058C176.471 149.058 176.802 148.729 176.802 148.322C176.802 147.917 176.471 147.588 176.061 147.588Z" fill="black"/>
<path d="M187.203 147.955C186.998 147.955 186.833 148.12 186.833 148.322C186.833 148.526 186.998 148.691 187.203 148.691C187.408 148.691 187.574 148.526 187.574 148.322C187.574 148.12 187.408 147.955 187.203 147.955Z" fill="black"/>
<path d="M198.346 148.231C198.294 148.231 198.253 148.272 198.253 148.323C198.253 148.374 198.294 148.415 198.346 148.415C198.397 148.415 198.438 148.374 198.438 148.323C198.438 148.272 198.397 148.231 198.346 148.231Z" fill="black"/>
<path d="M36.7818 159.214C36.6963 159.214 36.6273 159.282 36.6273 159.366C36.6273 159.451 36.6963 159.52 36.7818 159.52C36.8667 159.52 36.9364 159.451 36.9364 159.366C36.9364 159.282 36.8667 159.214 36.7818 159.214Z" fill="black"/>
<path d="M47.924 158.938C47.6852 158.938 47.4911 159.13 47.4911 159.366C47.4911 159.604 47.6852 159.796 47.924 159.796C48.1627 159.796 48.3561 159.604 48.3561 159.366C48.3561 159.13 48.1627 158.938 47.924 158.938Z" fill="black"/>
<path d="M59.0667 158.632C58.6569 158.632 58.3254 158.962 58.3254 159.367C58.3254 159.773 58.6569 160.103 59.0667 160.103C59.4759 160.103 59.8081 159.773 59.8081 159.367C59.8081 158.962 59.4759 158.632 59.0667 158.632Z" fill="black"/>
<path d="M70.2082 158.295C69.6109 158.295 69.1267 158.775 69.1267 159.367C69.1267 159.959 69.6109 160.439 70.2082 160.439C70.8055 160.439 71.2896 159.959 71.2896 159.367C71.2896 158.775 70.8055 158.295 70.2082 158.295Z" fill="black"/>
<path d="M81.3509 157.989C80.5833 157.989 79.9603 158.606 79.9603 159.367C79.9603 160.128 80.5833 160.746 81.3509 160.746C82.1186 160.746 82.7416 160.128 82.7416 159.367C82.7416 158.606 82.1186 157.989 81.3509 157.989Z" fill="black"/>
<path d="M92.4937 157.744C91.5892 157.744 90.8564 158.47 90.8564 159.367C90.8564 160.263 91.5892 160.99 92.4937 160.99C93.3982 160.99 94.131 160.263 94.131 159.367C94.131 158.47 93.3982 157.744 92.4937 157.744Z" fill="black"/>
<path d="M103.635 157.622C102.663 157.622 101.874 158.403 101.874 159.367C101.874 160.331 102.663 161.113 103.635 161.113C104.608 161.113 105.397 160.331 105.397 159.367C105.397 158.403 104.608 157.622 103.635 157.622Z" fill="black"/>
<path d="M114.778 157.622C113.805 157.622 113.017 158.403 113.017 159.367C113.017 160.331 113.805 161.113 114.778 161.113C115.751 161.113 116.539 160.331 116.539 159.367C116.539 158.403 115.751 157.622 114.778 157.622Z" fill="black"/>
<path d="M125.92 157.744C125.016 157.744 124.283 158.47 124.283 159.367C124.283 160.263 125.016 160.99 125.92 160.99C126.825 160.99 127.557 160.263 127.557 159.367C127.557 158.47 126.825 157.744 125.92 157.744Z" fill="black"/>
<path d="M137.063 157.989C136.295 157.989 135.672 158.606 135.672 159.367C135.672 160.128 136.295 160.746 137.063 160.746C137.83 160.746 138.453 160.128 138.453 159.367C138.453 158.606 137.83 157.989 137.063 157.989Z" fill="black"/>
<path d="M148.205 158.326C147.625 158.326 147.154 158.792 147.154 159.367C147.154 159.942 147.625 160.408 148.205 160.408C148.785 160.408 149.255 159.942 149.255 159.367C149.255 158.792 148.785 158.326 148.205 158.326Z" fill="black"/>
<path d="M159.347 158.632C158.938 158.632 158.606 158.962 158.606 159.367C158.606 159.773 158.938 160.103 159.347 160.103C159.757 160.103 160.088 159.773 160.088 159.367C160.088 158.962 159.757 158.632 159.347 158.632Z" fill="black"/>
<path d="M170.49 158.938C170.251 158.938 170.057 159.13 170.057 159.366C170.057 159.604 170.251 159.796 170.49 159.796C170.729 159.796 170.923 159.604 170.923 159.366C170.923 159.13 170.729 158.938 170.49 158.938Z" fill="black"/>
<path d="M181.632 159.214C181.547 159.214 181.478 159.282 181.478 159.366C181.478 159.451 181.547 159.52 181.632 159.52C181.717 159.52 181.786 159.451 181.786 159.366C181.786 159.282 181.717 159.214 181.632 159.214Z" fill="black"/>
<path d="M42.3213 170.411C42.3213 170.428 42.335 170.442 42.352 170.442C42.369 170.442 42.3828 170.428 42.3828 170.411C42.3828 170.395 42.369 170.381 42.352 170.381C42.335 170.381 42.3213 170.395 42.3213 170.411Z" fill="black"/>
<path d="M53.495 170.259C53.4095 170.259 53.3404 170.327 53.3404 170.411C53.3404 170.496 53.4095 170.565 53.495 170.565C53.5799 170.565 53.6496 170.496 53.6496 170.411C53.6496 170.327 53.5799 170.259 53.495 170.259Z" fill="black"/>
<path d="M64.6371 170.044C64.4325 170.044 64.2668 170.208 64.2668 170.411C64.2668 170.615 64.4325 170.78 64.6371 170.78C64.8423 170.78 65.0081 170.615 65.0081 170.411C65.0081 170.208 64.8423 170.044 64.6371 170.044Z" fill="black"/>
<path d="M75.7799 169.799C75.4385 169.799 75.1622 170.073 75.1622 170.411C75.1622 170.75 75.4385 171.024 75.7799 171.024C76.1213 171.024 76.3976 170.75 76.3976 170.411C76.3976 170.073 76.1213 169.799 75.7799 169.799Z" fill="black"/>
<path d="M86.922 169.585C86.4615 169.585 86.0879 169.955 86.0879 170.412C86.0879 170.868 86.4615 171.239 86.922 171.239C87.3825 171.239 87.7561 170.868 87.7561 170.412C87.7561 169.955 87.3825 169.585 86.922 169.585Z" fill="black"/>
<path d="M98.0648 169.431C97.5188 169.431 97.0761 169.87 97.0761 170.411C97.0761 170.952 97.5188 171.392 98.0648 171.392C98.6107 171.392 99.0535 170.952 99.0535 170.411C99.0535 169.87 98.6107 169.431 98.0648 169.431Z" fill="black"/>
<path d="M109.207 169.34C108.61 169.34 108.125 169.82 108.125 170.412C108.125 171.004 108.61 171.484 109.207 171.484C109.804 171.484 110.288 171.004 110.288 170.412C110.288 169.82 109.804 169.34 109.207 169.34Z" fill="black"/>
<path d="M120.349 169.34C119.752 169.34 119.268 169.82 119.268 170.412C119.268 171.004 119.752 171.484 120.349 171.484C120.946 171.484 121.43 171.004 121.43 170.412C121.43 169.82 120.946 169.34 120.349 169.34Z" fill="black"/>
<path d="M131.492 169.462C130.963 169.462 130.534 169.887 130.534 170.411C130.534 170.936 130.963 171.361 131.492 171.361C132.021 171.361 132.449 170.936 132.449 170.411C132.449 169.887 132.021 169.462 131.492 169.462Z" fill="black"/>
<path d="M142.634 169.585C142.173 169.585 141.8 169.955 141.8 170.412C141.8 170.868 142.173 171.239 142.634 171.239C143.095 171.239 143.469 170.868 143.469 170.412C143.469 169.955 143.095 169.585 142.634 169.585Z" fill="black"/>
<path d="M153.776 169.83C153.452 169.83 153.189 170.09 153.189 170.412C153.189 170.733 153.452 170.993 153.776 170.993C154.1 170.993 154.363 170.733 154.363 170.412C154.363 170.09 154.1 169.83 153.776 169.83Z" fill="black"/>
<path d="M164.919 170.044C164.714 170.044 164.548 170.208 164.548 170.411C164.548 170.615 164.714 170.78 164.919 170.78C165.123 170.78 165.29 170.615 165.29 170.411C165.29 170.208 165.123 170.044 164.919 170.044Z" fill="black"/>
<path d="M176.061 170.259C175.976 170.259 175.906 170.327 175.906 170.411C175.906 170.496 175.976 170.565 176.061 170.565C176.146 170.565 176.215 170.496 176.215 170.411C176.215 170.327 176.146 170.259 176.061 170.259Z" fill="black"/>
<path d="M187.172 170.411C187.172 170.428 187.186 170.442 187.203 170.442C187.22 170.442 187.233 170.428 187.233 170.411C187.233 170.395 187.22 170.381 187.203 170.381C187.186 170.381 187.172 170.395 187.172 170.411Z" fill="black"/>
<path d="M59.0667 181.364C59.0154 181.364 58.9739 181.404 58.9739 181.456C58.9739 181.507 59.0154 181.548 59.0667 181.548C59.118 181.548 59.1595 181.507 59.1595 181.456C59.1595 181.404 59.118 181.364 59.0667 181.364Z" fill="black"/>
<path d="M70.2082 181.211C70.0713 181.211 69.9615 181.32 69.9615 181.455C69.9615 181.591 70.0713 181.7 70.2082 181.7C70.345 181.7 70.4555 181.591 70.4555 181.455C70.4555 181.32 70.345 181.211 70.2082 181.211Z" fill="black"/>
<path d="M81.3509 181.088C81.1463 181.088 80.9806 181.252 80.9806 181.455C80.9806 181.659 81.1463 181.823 81.3509 181.823C81.5555 181.823 81.7213 181.659 81.7213 181.455C81.7213 181.252 81.5555 181.088 81.3509 181.088Z" fill="black"/>
<path d="M92.4937 180.996C92.2378 180.996 92.0299 181.202 92.0299 181.455C92.0299 181.71 92.2378 181.915 92.4937 181.915C92.7496 181.915 92.9574 181.71 92.9574 181.455C92.9574 181.202 92.7496 180.996 92.4937 180.996Z" fill="black"/>
<path d="M103.635 180.936C103.345 180.936 103.11 181.168 103.11 181.456C103.11 181.743 103.345 181.977 103.635 181.977C103.925 181.977 104.161 181.743 104.161 181.456C104.161 181.168 103.925 180.936 103.635 180.936Z" fill="black"/>
<path d="M114.778 180.936C114.488 180.936 114.253 181.168 114.253 181.456C114.253 181.743 114.488 181.977 114.778 181.977C115.068 181.977 115.303 181.743 115.303 181.456C115.303 181.168 115.068 180.936 114.778 180.936Z" fill="black"/>
<path d="M125.92 180.996C125.664 180.996 125.456 181.202 125.456 181.455C125.456 181.71 125.664 181.915 125.92 181.915C126.176 181.915 126.384 181.71 126.384 181.455C126.384 181.202 126.176 180.996 125.92 180.996Z" fill="black"/>
<path d="M137.063 181.088C136.858 181.088 136.692 181.252 136.692 181.455C136.692 181.659 136.858 181.823 137.063 181.823C137.267 181.823 137.433 181.659 137.433 181.455C137.433 181.252 137.267 181.088 137.063 181.088Z" fill="black"/>
<path d="M148.205 181.241C148.085 181.241 147.988 181.337 147.988 181.455C147.988 181.574 148.085 181.67 148.205 181.67C148.325 181.67 148.421 181.574 148.421 181.455C148.421 181.337 148.325 181.241 148.205 181.241Z" fill="black"/>
<path d="M159.347 181.364C159.296 181.364 159.254 181.404 159.254 181.456C159.254 181.507 159.296 181.548 159.347 181.548C159.398 181.548 159.44 181.507 159.44 181.456C159.44 181.404 159.398 181.364 159.347 181.364Z" fill="black"/>
<path d="M75.749 192.5C75.749 192.517 75.7627 192.53 75.7797 192.53C75.7967 192.53 75.8104 192.517 75.8104 192.5C75.8104 192.483 75.7967 192.469 75.7797 192.469C75.7627 192.469 75.749 192.483 75.749 192.5Z" fill="black"/>
<path d="M86.922 192.439C86.8878 192.439 86.8601 192.466 86.8601 192.5C86.8601 192.534 86.8878 192.561 86.922 192.561C86.9562 192.561 86.9838 192.534 86.9838 192.5C86.9838 192.466 86.9562 192.439 86.922 192.439Z" fill="black"/>
<path d="M98.0647 192.378C97.9963 192.378 97.9411 192.433 97.9411 192.5C97.9411 192.568 97.9963 192.622 98.0647 192.622C98.1331 192.622 98.1877 192.568 98.1877 192.5C98.1877 192.433 98.1331 192.378 98.0647 192.378Z" fill="black"/>
<path d="M109.207 192.347C109.122 192.347 109.052 192.415 109.052 192.5C109.052 192.585 109.122 192.653 109.207 192.653C109.292 192.653 109.361 192.585 109.361 192.5C109.361 192.415 109.292 192.347 109.207 192.347Z" fill="black"/>
<path d="M120.349 192.347C120.264 192.347 120.194 192.415 120.194 192.5C120.194 192.585 120.264 192.653 120.349 192.653C120.434 192.653 120.504 192.585 120.504 192.5C120.504 192.415 120.434 192.347 120.349 192.347Z" fill="black"/>
<path d="M131.492 192.378C131.423 192.378 131.368 192.433 131.368 192.5C131.368 192.568 131.423 192.622 131.492 192.622C131.56 192.622 131.615 192.568 131.615 192.5C131.615 192.433 131.56 192.378 131.492 192.378Z" fill="black"/>
<path d="M142.634 192.439C142.6 192.439 142.572 192.466 142.572 192.5C142.572 192.534 142.6 192.561 142.634 192.561C142.668 192.561 142.696 192.534 142.696 192.5C142.696 192.466 142.668 192.439 142.634 192.439Z" fill="black"/>
<path d="M153.745 192.5C153.745 192.517 153.759 192.53 153.776 192.53C153.793 192.53 153.806 192.517 153.806 192.5C153.806 192.483 153.793 192.469 153.776 192.469C153.759 192.469 153.745 192.483 153.745 192.5Z" fill="black"/>
<path d="M157.052 85.8218L200.847 75.8823L161.83 78.7642L222.893 43.9968L156.02 70.7867L186.775 42.518L154.182 66.5785L176.508 17.5311L145.276 66.3451L151.732 30.9693L140.208 64.2886L139 0L133.161 62.9786L119.423 31.4244L127.313 62.2275L75.1438 1.366L117.378 65.1701L69.0445 29.7755L111.641 69.2903L22.0908 41.8947L121.669 81.6657L79.4814 78.4519L121.104 85.9939L79.6998 94.6274L121.774 90.2073L84.5348 110.116L123.641 94.1018L93.5416 123.578L126.55 97.3398L106.023 134.012L130.213 99.6056L121.006 140.539L134.408 100.754L136.178 127.812L135.796 126.339L129.139 134.912L144.991 161.885L137.517 132.99L138.208 115.085L138.763 100.702L145.661 116.585L143.92 118.564L149.032 124.347L149.631 125.728L149.377 124.739L171.214 149.442L148.126 113.783L146.918 115.155L142.884 99.4361L158.565 114.471L146.531 97.0386L180.233 122.398L149.336 93.7432L188.888 108.639L164.023 94.8256L214.423 93.4042L157.052 85.8218Z" fill="black"/>
<path d="M0 101.516L73.6071 91.169L70.539 86.3597L0 101.516Z" fill="black"/>
<path d="M20.9409 128.985L70.7081 106.07L65.8935 101.14L20.9409 128.985Z" fill="black"/>
<path d="M21.8415 109.327L59.6581 101.247L57.2755 97.7382C54.6778 97.686 21.8415 109.327 21.8415 109.327Z" fill="black"/>
<path d="M85.0413 84.9474L85.3886 79.4208L19.9411 70.5285L85.0413 84.9474Z" fill="black"/>
<path d="M75.4023 175.976L97.8227 130.551L89.7868 133.796L75.4023 175.976Z" fill="black"/>
<path d="M108.965 138.751C109.033 139.803 118.121 172.855 118.121 172.855L116.81 133.672L108.965 138.751Z" fill="black"/>
<path d="M172.268 131.336L162.134 113.753L158.564 117.512L172.268 131.336Z" fill="black"/>
<path d="M94.6507 113.254L21.8415 153.264L97.4096 116.382L94.6507 113.254Z" fill="black"/>
<path d="M66.3356 117.712C66.3356 117.712 48.0904 115.661 46.7248 97.2818C45.3585 78.9031 64.2497 75.7316 64.2497 75.7316C64.2497 75.7316 58.9279 51.6927 88.1159 54.9137C88.1159 54.9137 88.8829 47.746 95.5026 44.9794C102.122 42.2129 107.972 48.6373 107.972 48.6373C107.972 48.6373 113.453 32.8674 133.205 37.5946C152.956 42.3218 153.981 57.9554 153.981 57.9554C153.981 57.9554 168.28 57.7637 172.945 67.7111C177.61 77.6584 169.193 85.6946 169.193 85.6946C169.193 85.6946 188.127 101.24 174.533 119.335C160.938 137.431 149.591 133.916 149.591 133.916C149.591 133.916 143.762 153.577 124.3 142.433C124.3 142.433 112.584 153.491 96.309 149.338C80.0346 145.184 77.5606 131.284 77.5606 131.284C77.5606 131.284 62.7209 131.22 66.3356 117.712Z" fill="white"/>
<path d="M171.017 117.858C158.2 134.918 147.502 131.604 147.502 131.604C147.502 131.604 142.006 150.142 123.656 139.634C123.656 139.634 112.61 150.061 97.2668 146.144C81.9226 142.227 79.5906 129.123 79.5906 129.123C79.5906 129.123 65.5989 129.063 69.007 116.327C69.007 116.327 51.8051 114.394 50.5171 97.0653C49.2297 79.737 67.0401 76.7475 67.0401 76.7475C67.0401 76.7475 62.023 54.083 89.5421 57.1195C89.5421 57.1195 90.265 50.3619 96.5057 47.7538C102.746 45.1457 108.263 51.2024 108.263 51.2024C108.263 51.2024 113.43 36.3342 132.052 40.7915C150.675 45.2481 151.64 59.9878 151.64 59.9878C151.64 59.9878 165.122 59.8072 169.52 69.1853C173.918 78.5634 165.983 86.1399 165.983 86.1399C165.983 86.1399 183.834 100.797 171.017 117.858ZM126.699 122.811C126.699 122.811 141.623 127.317 147.779 111.683C147.779 111.683 140.058 121.765 126.699 122.811ZM77.8211 106.442C77.8211 106.442 82.5666 122.605 99.5495 115.863C99.5495 115.863 86.0833 117.015 77.8211 106.442ZM92.03 78.7955C92.03 78.7955 96.2854 59.9232 116.431 67.4913C116.431 67.4913 98.9173 65.6787 92.03 78.7955ZM169.193 85.6946C169.193 85.6946 177.61 77.6584 172.945 67.711C168.28 57.7637 153.981 57.9554 153.981 57.9554C153.981 57.9554 152.956 42.3224 133.205 37.5952C113.453 32.868 107.973 48.6373 107.973 48.6373C107.973 48.6373 102.122 42.2135 95.5026 44.9801C88.8836 47.746 88.1159 54.9137 88.1159 54.9137C58.9279 51.6927 64.2497 75.7316 64.2497 75.7316C64.2497 75.7316 45.3591 78.9031 46.7248 97.2818C48.0904 115.662 66.3356 117.712 66.3356 117.712C62.7209 131.22 77.5613 131.284 77.5613 131.284C77.5613 131.284 80.0347 145.184 96.3091 149.338C112.584 153.491 124.3 142.433 124.3 142.433C143.762 153.577 149.592 133.916 149.592 133.916C149.592 133.916 160.938 137.432 174.533 119.336C188.127 101.24 169.193 85.6946 169.193 85.6946Z" fill="black"/>
<path d="M167.739 84.0241C167.739 84.0241 163.881 88.7018 160.452 91.0314C160.452 91.0314 166.776 88.8354 168.445 87.3325L167.739 84.0241Z" fill="black"/>
<path d="M107.621 48.8701C107.621 48.8701 105.989 50.6468 105.609 56.0495C105.609 56.0495 107.022 52.6975 108.263 51.2024L107.621 48.8701Z" fill="black"/>
<path d="M151.302 58.4138C151.302 58.4138 152.075 60.5348 151.893 65.322C151.893 65.322 153.992 61.239 153.981 57.9548L151.302 58.4138Z" fill="black"/>
<path d="M88.033 55.584C88.033 55.584 86.9897 58.4347 88.9323 62.7889C88.9323 62.7889 88.7862 59.354 89.6164 56.6468L88.033 55.584Z" fill="black"/>
<path d="M66.0139 84.6135C66.0139 84.6135 61.4881 75.212 70.6686 72.9768C70.6686 72.9768 65.8448 77.5462 66.0139 84.6135Z" fill="black"/>
<path d="M77.681 129.957C77.681 129.957 77.2745 126.217 78.8434 121.439C78.8434 121.439 78.4434 126.785 80.305 131.532L77.681 129.957Z" fill="black"/>
<path d="M122.155 140.861C122.155 140.861 126.584 137.351 129.126 132.324C129.126 132.324 128.395 137.037 124.89 141.438L122.155 140.861Z" fill="black"/>
<path d="M141.429 132.232C141.429 132.232 149.332 136.881 151.557 126.701C151.557 126.701 148.158 132.407 141.429 132.232Z" fill="black"/>
<path d="M72.8454 119.736C72.8454 119.736 65.0351 119.455 67.5657 111.338C67.5657 111.338 67.7012 116.803 72.8454 119.736Z" fill="black"/>
<path d="M147.599 35.5381C147.599 35.5381 148.323 35.0289 149.678 34.0736C151.055 33.1465 153.065 31.7661 155.762 30.2136C157.108 29.4325 158.637 28.6286 160.36 27.8474C162.089 27.0872 164.031 26.3373 166.32 26.128C167.446 26.0426 168.739 26.0707 169.937 26.7612C171.182 27.449 171.883 28.7994 172.103 30.1119C172.326 31.4329 172.226 32.752 172.017 34.0508C171.799 35.351 171.45 36.6381 171.036 37.9245C170.211 40.5 169.064 43.0527 167.784 45.6321C166.5 48.2115 165.048 50.8053 163.488 53.4278C160.347 58.6577 156.795 64.0219 152.839 69.36C148.901 74.7106 144.646 80.0983 140.182 85.4547C135.712 90.8065 131.046 96.1381 126.225 101.332C116.514 111.649 106.316 121.52 96.234 130.207C91.18 134.537 86.1234 138.529 81.1766 142.122C76.216 145.692 71.3811 148.912 66.575 151.344C64.1733 152.557 61.7934 153.604 59.389 154.294C58.1872 154.635 56.9709 154.875 55.7454 154.929C54.5317 154.961 53.2352 154.804 52.1774 154.086C52.0419 154.007 51.9235 153.904 51.8044 153.803L51.7149 153.728L51.6709 153.69C51.6393 153.659 51.6794 153.706 51.588 153.61L51.4597 153.459C51.29 153.256 51.1163 153.079 50.9591 152.773L50.7295 152.36C50.667 152.224 50.6309 152.089 50.5815 151.955C50.4815 151.687 50.4013 151.42 50.3671 151.151C50.1724 150.078 50.2355 149.06 50.3802 148.118C50.6651 146.228 51.2255 144.59 51.7735 143.139C52.8924 140.243 54.0331 138.096 54.8133 136.639C55.6145 135.193 56.0414 134.423 56.0414 134.423C56.0414 134.423 55.7105 135.246 55.1409 136.8C54.5982 138.359 53.7134 140.625 52.9859 143.555C52.6319 145.01 52.3024 146.653 52.2754 148.332C52.2524 149.166 52.3379 150.014 52.5793 150.687C52.6194 150.869 52.6938 151.017 52.7701 151.152C52.805 151.217 52.8372 151.308 52.8701 151.352C52.903 151.376 52.928 151.399 52.9457 151.426C52.9549 151.44 52.9615 151.454 52.9674 151.47L52.9747 151.494L53.0444 151.563L53.3279 151.84L53.4707 151.979C53.2095 151.712 53.4101 151.911 53.3569 151.854L53.3773 151.864L53.4167 151.884C53.4674 151.913 53.5134 151.947 53.5753 151.964C53.9943 152.164 54.7225 152.211 55.5915 152.085C56.469 151.945 57.4452 151.653 58.4503 151.257C60.4751 150.48 62.6058 149.332 64.7628 148.003C69.0622 145.289 73.6183 141.994 78.2085 138.196C82.8534 134.466 87.5883 130.293 92.395 125.871C97.2168 121.464 102.071 116.757 106.874 111.846C111.726 106.968 116.551 101.963 121.263 96.7895C126.028 91.6913 130.729 86.5338 135.183 81.3182C139.701 76.1568 144.049 70.994 148.051 65.8593C149.056 64.5787 150.033 63.2962 150.997 62.0241C151.975 60.7611 152.924 59.4988 153.856 58.2456C155.713 55.7353 157.473 53.2458 159.11 50.7871C162.428 45.9138 165.315 41.1181 167.249 36.6374C167.724 35.5231 168.129 34.4251 168.407 33.3884C168.683 32.3575 168.827 31.3716 168.792 30.6316C168.771 30.2691 168.708 29.99 168.648 29.7905C168.625 29.7116 168.639 29.7403 168.659 29.7298C168.729 29.7631 168.599 29.6112 168.51 29.5016L168.441 29.4175C168.479 29.4521 168.308 29.2806 168.516 29.4834L168.503 29.4736L168.453 29.4286C168.422 29.3967 168.393 29.3588 168.366 29.3152C168.098 29.0139 167.331 28.8014 166.484 28.785C164.756 28.729 162.835 29.2115 161.126 29.6972C159.406 30.2195 157.819 30.8044 156.407 31.3971C153.568 32.5688 151.412 33.7039 149.894 34.3951C148.397 35.1404 147.599 35.5381 147.599 35.5381Z" fill="white"/>
<path d="M147.599 35.5381C147.599 35.5381 148.321 35.0262 149.674 34.0665C151.043 33.1288 153.063 31.7622 155.762 30.213C157.109 29.4351 158.641 28.6351 160.365 27.8579C162.098 27.1113 164.039 26.3654 166.321 26.1522C167.445 26.0654 168.733 26.0935 169.925 26.7794C171.163 27.4621 171.863 28.8059 172.085 30.1152C172.308 31.4323 172.209 32.75 172 34.0482C171.781 35.3464 171.441 36.6354 171.019 37.918C169.293 43.0396 166.579 48.1704 163.482 53.4238C160.379 58.6792 156.763 63.9991 152.827 69.3509C148.896 74.7066 144.592 80.0572 140.089 85.3777C135.581 90.695 130.86 95.9745 126.017 101.14C116.39 111.523 106.299 121.498 96.2459 130.22C91.1866 134.542 86.1892 138.611 81.2115 142.169C76.2456 145.738 71.3784 148.906 66.5948 151.382C64.2023 152.615 61.8092 153.644 59.4016 154.334C58.1958 154.672 56.9769 154.909 55.7474 154.961C54.5291 154.99 53.2273 154.83 52.1643 154.107C52.0281 154.026 51.909 153.922 51.79 153.82L51.6998 153.745L51.6558 153.706C51.6229 153.674 51.6663 153.724 51.5716 153.625L51.4433 153.473C51.2742 153.271 51.1012 153.093 50.9427 152.785L50.7125 152.368C50.65 152.231 50.6138 152.096 50.5645 151.961C50.4645 151.692 50.3849 151.424 50.352 151.154C50.15 150.08 50.2066 149.059 50.3454 148.114C50.6322 146.22 51.1946 144.58 51.7439 143.128C52.8688 140.233 54.0009 138.081 54.7968 136.631C55.6086 135.19 56.0414 134.423 56.0414 134.423C56.0414 134.423 55.6665 135.219 54.9626 136.712C54.2864 138.214 53.2681 140.419 52.3406 143.333C51.8867 144.787 51.438 146.428 51.2788 148.219C51.1861 149.109 51.1874 150.048 51.3992 150.934C51.4354 151.164 51.5124 151.375 51.6012 151.581C51.6439 151.683 51.6781 151.797 51.7262 151.891L51.884 152.146C51.9505 152.312 52.1478 152.512 52.3287 152.706L52.4636 152.852C52.3912 152.778 52.4623 152.846 52.455 152.836L52.4879 152.861L52.5537 152.911C52.6405 152.979 52.7254 153.05 52.8267 153.101C53.5871 153.578 54.6192 153.686 55.6744 153.612C56.7381 153.518 57.8445 153.258 58.9556 152.891C61.1823 152.152 63.4327 151.035 65.7285 149.783C70.3088 147.238 75.0129 143.979 79.8071 140.311C84.5854 136.618 89.5256 132.583 94.4685 128.213C104.409 119.536 114.549 109.734 124.176 99.4556C128.957 94.287 133.615 89.0076 138.059 83.6974C142.504 78.3886 146.73 73.0472 150.693 67.7906C152.677 65.1649 154.578 62.5463 156.387 59.9506C158.202 57.3588 159.942 54.8003 161.55 52.2587C164.75 47.1787 167.559 42.1998 169.348 37.3507C170.214 34.9499 170.907 32.5003 170.655 30.3388C170.523 29.2884 170.041 28.3521 169.251 27.8761C168.458 27.3571 167.395 27.2502 166.392 27.2925C164.348 27.3858 162.418 28.0267 160.7 28.667C158.977 29.3308 157.42 30.0356 156.043 30.7313C153.281 32.1104 151.204 33.3786 149.769 34.2092C148.354 35.0758 147.599 35.5381 147.599 35.5381Z" fill="black"/>
<path d="M186.643 80.7262C186.643 80.7262 186.863 80.7953 187.289 80.9302C187.714 81.0678 188.35 81.2563 189.167 81.5425C190.801 82.1072 193.209 82.9359 196.107 84.4069C197.542 85.1586 199.117 86.0754 200.557 87.4805C201.246 88.2003 201.921 89.0799 202.188 90.2164C202.281 90.4916 202.254 90.7961 202.289 91.0908C202.28 91.4272 202.26 91.6268 202.177 91.9743C202.025 92.5813 201.746 93.1192 201.393 93.6167C200.678 94.6026 199.713 95.3681 198.686 96.0475C197.647 96.7139 196.527 97.2955 195.347 97.8028C192.986 98.8167 190.42 99.6206 187.72 100.331C182.313 101.734 176.356 102.75 170.033 103.545C163.71 104.356 157.005 104.851 150.067 105.148C143.129 105.446 135.952 105.551 128.663 105.461C121.371 105.371 113.978 105.122 106.586 104.586C91.8148 103.558 77.0824 101.822 63.4346 99.1648C56.6157 97.8191 50.0803 96.1799 44.0146 94.1468C40.986 93.1173 38.0745 91.9795 35.3722 90.5822C34.021 89.8839 32.7271 89.1073 31.5351 88.1984C30.3688 87.2706 29.2327 86.2188 28.5993 84.7583C28.2894 84.043 28.1598 83.1784 28.2901 82.4273C28.4151 81.6207 28.7887 80.9029 29.2262 80.3297C30.1247 79.1678 31.2733 78.401 32.3962 77.7588C34.6716 76.501 36.9726 75.7179 39.1434 75.0763C43.4969 73.814 47.3806 73.1555 50.573 72.6443C53.7713 72.1572 56.2953 71.8684 58.0162 71.6825C59.739 71.5085 60.6573 71.4152 60.6573 71.4152C60.6573 71.4152 59.7515 71.6063 58.053 71.9636C56.3559 72.3176 53.8812 72.9168 50.7572 73.681C47.6424 74.4608 43.8711 75.5243 39.7762 77.0546C37.7488 77.8318 35.6136 78.7786 33.7612 80.0278C32.8481 80.6394 32.0272 81.3945 31.6187 82.0628C31.5081 82.2265 31.445 82.3804 31.3983 82.516C31.3943 82.5642 31.3312 82.6875 31.3641 82.6614C31.3693 82.6614 31.37 82.6601 31.3667 82.6575C31.3647 82.6627 31.3614 82.6418 31.3575 82.6679L31.3483 82.7931L31.3299 83.0448L31.3253 83.108C31.3095 83.288 31.3404 82.9385 31.3404 82.977L31.3503 83.0128C31.3575 83.0598 31.3628 83.108 31.3864 83.1595C31.4088 83.258 31.4693 83.3753 31.5404 83.509C31.8292 84.0587 32.6448 84.8274 33.6256 85.4814C34.6295 86.1458 35.7984 86.76 37.0568 87.3129C38.3133 87.8691 39.6506 88.3764 41.0379 88.8465C42.4194 89.3342 43.8527 89.7874 45.3243 90.2112C51.2157 91.9195 57.6807 93.1486 64.3885 94.2825C71.1008 95.4248 78.1086 96.3298 85.2551 97.0392C92.3937 97.8158 99.6725 98.4496 106.968 98.8708L112.429 99.1583C114.256 99.247 116.08 99.3357 117.902 99.423C121.537 99.601 125.16 99.7347 128.755 99.8188C132.35 99.9062 135.916 99.9447 139.438 99.9349C142.96 99.9727 146.439 99.9747 149.858 99.9212C153.277 99.8658 156.636 99.766 159.917 99.6043C163.198 99.4433 166.409 99.3155 169.521 99.0781C172.634 98.8506 175.652 98.5617 178.549 98.1979C181.443 97.8256 184.238 97.4696 186.867 96.9577C189.493 96.455 191.977 95.8545 194.193 95.0812C195.296 94.6906 196.35 94.2903 197.275 93.8117C198.189 93.3357 198.998 92.7919 199.512 92.2318C199.762 91.9684 199.956 91.647 200.047 91.4579C200.057 91.4422 200.067 91.4266 200.08 91.4109C200.087 91.4018 200.094 91.3985 200.101 91.3835L200.12 91.2844L200.156 91.0875L200.174 90.9891C200.185 90.8763 200.17 91.0849 200.171 91.0562V91.0308C200.156 90.8952 200.225 90.7628 200.182 90.6135C200.142 90.026 199.765 89.3205 199.269 88.6718C198.222 87.3684 196.824 86.3036 195.528 85.4442C192.888 83.7483 190.605 82.5962 189.056 81.847C188.281 81.463 187.668 81.1969 187.261 81.0085C186.854 80.822 186.643 80.7262 186.643 80.7262Z" fill="white"/>
<path d="M186.643 80.7262C186.643 80.7262 186.863 80.7927 187.292 80.9218C187.719 81.0535 188.357 81.2328 189.179 81.5086C190.826 82.0478 193.236 82.8687 196.154 84.3208C197.6 85.0661 199.191 85.9711 200.656 87.3879C201.355 88.1188 202.047 89.0154 202.322 90.1903C202.417 90.474 202.391 90.7895 202.425 91.094C202.429 91.3209 202.405 91.3855 202.397 91.5394C202.395 91.658 202.341 91.851 202.309 92.0069C202.151 92.6387 201.864 93.1877 201.503 93.6976C199.994 95.6869 197.735 96.8717 195.403 97.9338C193.041 98.9744 190.476 99.8097 187.767 100.519C182.351 101.937 176.388 102.964 170.059 103.771C163.729 104.594 157.018 105.059 150.077 105.394C136.186 105.946 121.357 105.623 106.584 104.615C99.1936 104.151 91.8129 103.505 84.5683 102.66C80.947 102.224 77.3587 101.753 73.8235 101.205C70.2917 100.642 66.8106 100.027 63.3991 99.3474C56.5854 97.9508 50.0421 96.324 43.9738 94.2681C40.9439 93.2314 38.0297 92.0858 35.3215 90.6794C33.9697 89.9758 32.6679 89.1986 31.4766 88.2747C30.3096 87.3338 29.1702 86.2684 28.5355 84.785C28.2263 84.0593 28.0993 83.1784 28.2355 82.4208C28.3664 81.6025 28.7492 80.8787 29.192 80.305C30.1017 79.1398 31.247 78.3652 32.3732 77.7203C34.6512 76.4554 36.9535 75.6677 39.1257 75.0209C43.4804 73.7443 47.3734 73.1177 50.5671 72.611C53.768 72.1344 56.2934 71.8534 58.0149 71.6741C59.7384 71.5052 60.6573 71.4152 60.6573 71.4152C60.6573 71.4152 59.7436 71.5463 58.0307 71.7927C56.3197 72.0496 53.8121 72.4435 50.6473 73.0616C47.4885 73.696 43.6541 74.5371 39.4164 75.9305C37.3088 76.6353 35.0821 77.4941 32.9941 78.7531C31.9647 79.3836 30.9608 80.1465 30.2806 81.0933C29.9399 81.5718 29.7129 82.0752 29.6439 82.589C29.5649 83.1608 29.6689 83.6707 29.905 84.2034C30.3885 85.2584 31.3845 86.181 32.4699 86.9837C33.5809 87.7778 34.8137 88.4898 36.1234 89.1243C38.7402 90.4003 41.6089 91.4474 44.6007 92.3851C50.596 94.2499 57.1025 95.6863 63.876 96.9056C67.2605 97.5335 70.7173 98.0975 74.2268 98.6087C77.7336 99.1368 81.2911 99.6265 84.8861 100.061C92.0734 100.942 99.4041 101.639 106.749 102.137C121.447 103.057 136.191 103.239 149.97 102.712C156.862 102.5 163.51 102.027 169.791 101.433C176.069 100.814 181.981 99.9662 187.315 98.7312C189.975 98.0988 192.504 97.405 194.799 96.5117C197.064 95.6152 199.225 94.5341 200.509 92.9654C200.813 92.5781 201.053 92.1425 201.177 91.7317C201.2 91.6235 201.245 91.5622 201.257 91.4122C201.268 91.3001 201.307 91.1006 201.296 91.0627C201.271 90.8424 201.318 90.6187 201.249 90.4022C201.089 89.524 200.557 88.7207 199.955 88.0373C198.699 86.6798 197.21 85.6881 195.841 84.8828C193.071 83.288 190.705 82.3445 189.115 81.6866C188.317 81.3541 187.692 81.1291 187.276 80.9674C186.859 80.8083 186.643 80.7262 186.643 80.7262Z" fill="black"/>
<path d="M122.032 10.8191L124.015 15.8892L129.501 15.9427L125.248 19.3789L126.892 24.5664L122.282 21.6199L117.812 24.7725L119.215 19.5158L114.809 16.2766L120.286 15.974L122.032 10.8191Z" fill="black"/>
<path d="M96.5932 154.908L98.5759 159.978L104.061 160.032L99.8093 163.468L101.453 168.655L96.8425 165.709L92.3727 168.861L93.7751 163.605L89.3691 160.365L94.8467 160.063L96.5932 154.908Z" fill="white"/>
<path d="M43.3719 55.7816L46.5051 60.2453L51.8485 59.0143L48.5344 63.3477L51.3663 68.0051L46.1847 66.2192L42.591 70.3283L42.7029 64.8917L37.6502 62.7739L42.9015 61.1993L43.3719 55.7816Z" fill="black"/>
<path d="M198.996 102.259L198.134 107.628L202.846 110.412L197.427 111.259L196.212 116.562L193.725 111.715L188.262 112.208L192.144 108.366L189.983 103.368L194.869 105.84L198.996 102.259Z" fill="black"/>
<path d="M55.5566 60.5707L58.0056 61.8004L60.0659 60.0015L59.6423 62.6904L62.0052 64.0766L59.2943 64.5083L58.6944 67.164L57.4426 64.7417L54.7087 64.9973L56.6459 63.0686L55.5566 60.5707Z" fill="white"/>
<path d="M110.887 28.7094L113.336 29.9391L115.396 28.1402L114.973 30.8291L117.335 32.2154L114.625 32.6476L114.025 35.3027L112.773 32.8811L110.04 33.136L111.976 31.2073L110.887 28.7094Z" fill="white"/>
<path d="M180.5 118.075L184.616 117.323L185.436 113.254L187.43 116.903L191.587 116.419L188.703 119.425L190.451 123.195L186.675 121.405L183.599 124.218L184.149 120.105L180.5 118.075Z" fill="white"/>
<path d="M192.806 124.426L195.35 123.961L195.857 121.447L197.089 123.702L199.659 123.403L197.876 125.261L198.957 127.591L196.623 126.485L194.722 128.224L195.062 125.681L192.806 124.426Z" fill="black"/>
</g>
<defs>
<clipPath id="clip0_1_16">
<rect width="223" height="193" fill="white"/>
</clipPath>
</defs>
</svg>
